<svg width="18" height="20" viewBox="0 0 18 20" fill="none" xmlns="http://www.w3.org/2000/svg">
<path d="M2.16279 3.79637C0.711651 4.67424 0.5 5.66109 0.5 6.5102V13.1714C0.49998 13.9609 0.94912 14.6919 1.6877 15.1451C3.42967 16.2142 7.00862 18.4017 7.38868 18.5991C7.83787 18.9836 9.02558 19.0785 9.76409 18.5991C11.1634 17.75 13.7763 16.2697 14.7524 15.5296C15.6766 14.8288 16.3892 14.5427 16.4152 13.6649C16.4954 11.5822 16.6053 7.201 16.4152 6.01678C16.2252 4.83256 15.2275 4.04308 14.7524 3.79637C13.248 2.89176 10.1442 1.03319 9.76409 0.835821C9.26312 0.575661 8.31295 0.233421 7.38868 0.835821C5.88426 1.6582 2.73288 3.40163 2.16279 3.79637Z" fill="#D3CBFE" stroke="#D3CBFE" stroke-linejoin="round"/>
</svg>
