<svg width="40" height="48" viewBox="0 0 40 48" fill="none" xmlns="http://www.w3.org/2000/svg">
<path d="M4.15165 8.58697C0.528451 10.8741 0 13.4452 0 15.6575V33.0124C-4.9596e-05 35.0693 1.12137 36.9738 2.96547 38.1546C7.31482 40.94 16.2508 46.6393 17.1997 47.1535C18.3213 48.1551 21.2867 48.4025 23.1306 47.1535C26.6243 44.9412 33.1484 41.0846 35.5856 39.1563C37.8931 37.3306 39.6724 36.5852 39.7373 34.298C39.9375 28.8719 40.2117 17.4573 39.7373 14.3719C39.2628 11.2866 36.7718 9.22974 35.5856 8.58697C31.8293 6.23013 24.0796 1.38788 23.1306 0.873663C21.8798 0.195853 19.5074 -0.695807 17.1997 0.873663C13.4434 3.01625 5.57508 7.55853 4.15165 8.58697Z" fill="#CDAEFE" fill-opacity="0.65"/>
</svg>
