<svg width="20" height="24" viewBox="0 0 20 24" fill="none" xmlns="http://www.w3.org/2000/svg">
<path d="M2.07583 4.29348C0.264225 5.43707 0 6.72262 0 7.82875V16.5062C-2.4798e-05 17.5347 0.560683 18.4869 1.48273 19.0773C3.65741 20.47 8.12538 23.3196 8.59985 23.5767C9.16063 24.0776 10.6434 24.2012 11.5653 23.5767C13.3122 22.4706 16.5742 20.5423 17.7928 19.5781C18.9466 18.6653 19.8362 18.2926 19.8686 17.149C19.9688 14.4359 20.1059 8.72863 19.8686 7.18597C19.6314 5.64331 18.3859 4.61487 17.7928 4.29348C15.9147 3.11506 12.0398 0.693942 11.5653 0.436832C10.9399 0.0979265 9.75372 -0.347904 8.59985 0.436832C6.72172 1.50812 2.78754 3.77926 2.07583 4.29348Z" fill="#CDAEFE" fill-opacity="0.6"/>
</svg>
