<svg width="20" height="14" viewBox="0 0 20 14" fill="none" xmlns="http://www.w3.org/2000/svg">
<path d="M7.16895 0.250977C7.51168 0.261629 7.81656 0.375652 8.07617 0.588867L8.18457 0.685547L8.19238 0.693359C8.45108 0.96958 8.59011 1.29946 8.60254 1.67285C8.61538 2.05963 8.46872 2.39749 8.18359 2.67578L5.22559 5.57324H17.9033C18.3023 5.57333 18.6495 5.70813 18.9277 5.98047C19.2063 6.25318 19.3457 6.59532 19.3447 6.99023C19.3438 7.3845 19.2039 7.72684 18.9268 8C18.6493 8.27327 18.3023 8.40676 17.9033 8.40527V8.40625H5.22559L8.18457 11.3027C8.46879 11.581 8.61438 11.9193 8.60254 12.3057C8.59107 12.6796 8.45117 13.0098 8.19141 13.2861L8.18457 13.293C7.90238 13.5692 7.5601 13.7173 7.16895 13.7295C6.77187 13.7418 6.42237 13.6028 6.13574 13.3223L0.682617 7.98535C0.400025 7.70876 0.25 7.37281 0.25 6.98926C0.250097 6.60586 0.400116 6.27064 0.682617 5.99414L6.13574 0.657227C6.42189 0.377155 6.77153 0.238733 7.16895 0.250977Z" fill="#FCFCFF" stroke="#FCFCFF" stroke-width="0.5"/>
</svg>
