<svg width="56" height="66" viewBox="0 0 56 66" fill="none" xmlns="http://www.w3.org/2000/svg">
<path d="M5.81231 11.8071C0.739831 14.9519 0 18.4872 0 21.5291V45.3921C-6.94344e-05 48.2203 1.56991 50.8389 4.15165 52.4626C10.2407 56.2925 22.7511 64.129 24.0796 64.836C25.6498 66.2133 29.8014 66.5534 32.3829 64.836C37.2741 61.7942 46.4077 56.4913 49.8199 53.8399C53.0504 51.3296 55.5413 50.3046 55.6322 47.1597C55.9125 39.6988 56.2964 24.0037 55.6322 19.7614C54.9679 15.5191 51.4805 12.6909 49.8199 11.8071C44.5611 8.56642 33.7114 1.90834 32.3829 1.20129C30.6317 0.269298 27.3104 -0.956735 24.0796 1.20129C18.8208 4.14734 7.80511 10.393 5.81231 11.8071Z" fill="#CDAEFE"/>
</svg>
