<svg width="83" height="99" viewBox="0 0 83 99" fill="none" xmlns="http://www.w3.org/2000/svg">
<path d="M8.61468 17.7106C1.09654 22.4279 0 27.7308 0 32.2936V68.0881C-0.000102912 72.3304 2.32684 76.2584 6.15334 78.6939C15.1782 84.4387 33.7203 96.1935 35.6894 97.2541C38.0166 99.3199 44.1699 99.8301 47.9961 97.2541C55.2455 92.6913 68.7828 84.737 73.8401 80.7598C78.6282 76.9943 82.3202 75.4569 82.4548 70.7396C82.8704 59.5482 83.4393 36.0056 82.4548 29.6421C81.4703 23.2787 76.3015 19.0363 73.8401 17.7106C66.0459 12.8496 49.9652 2.86251 47.9961 1.80193C45.4006 0.403947 40.4779 -1.4351 35.6894 1.80193C27.8952 6.22101 11.5683 15.5895 8.61468 17.7106Z" fill="#F0E6FF"/>
</svg>
