<svg width="161" height="66" viewBox="0 0 161 66" fill="none" xmlns="http://www.w3.org/2000/svg">
<path d="M99.4107 36.8C99.9653 36.8 100.243 36.5227 100.243 35.968V0.832001C100.243 0.277334 99.9653 0 99.4107 0H69.6507C65.2987 0 62.376 0.896 60.8827 2.688C59.3893 4.43733 58.6427 6.656 58.6427 9.344V13.12C58.6427 15.1253 58.8987 16.7467 59.4107 17.984C59.88 19.2213 60.7333 20.224 61.9707 20.992C63.208 21.7173 64.9573 22.208 67.2187 22.464C67.7733 22.5067 67.88 22.7413 67.5387 23.168L57.2347 36.16L57.0427 36.544C57.0427 36.7147 57.2133 36.8 57.5547 36.8H61.6507C62.248 36.8 62.696 36.5867 62.9947 36.16L73.2987 23.296C73.5973 22.8693 74.0453 22.656 74.6427 22.656H94.9307C95.4853 22.656 95.7627 22.9333 95.7627 23.488V35.968C95.7627 36.5227 96.04 36.8 96.5947 36.8H99.4107ZM72.2107 18.432C68.9253 18.432 66.6 18.112 65.2347 17.472C63.8267 16.7893 63.1227 15.5733 63.1227 13.824V9.984C63.1227 8.02133 63.6133 6.57067 64.5947 5.632C65.5333 4.69334 67.432 4.224 70.2907 4.224H94.9307C95.4853 4.224 95.7627 4.50134 95.7627 5.056V17.6C95.7627 18.1547 95.4853 18.432 94.9307 18.432H72.2107Z" fill="black"/>
<path d="M88.8027 40.8C88.248 40.8 87.9707 40.5227 87.9707 39.968V4.832C87.9707 4.27733 88.248 4 88.8027 4H91.6187C92.1733 4 92.4507 4.27733 92.4507 4.832V35.744C92.4507 36.2987 92.728 36.576 93.2827 36.576H124.643C125.197 36.576 125.475 36.8533 125.475 37.408V39.968C125.475 40.5227 125.197 40.8 124.643 40.8H88.8027Z" fill="black"/>
<path d="M5.77067 52.44C5.79467 52.248 5.79467 52.152 5.79467 52.056C5.79467 51.504 5.60267 51.384 5.05067 51.384C3.92267 51.432 3.20267 52.128 2.50667 52.872C2.29067 53.088 2.36267 53.472 2.60267 53.664C2.98667 53.976 3.39467 54.264 3.80267 54.432C4.25867 54.648 4.69067 54.528 5.07467 54.192C5.62667 53.688 5.81867 53.064 5.77067 52.44ZM7.04267 52.128C7.04267 53.496 6.01067 55.056 4.76267 55.44C3.65867 55.776 2.69867 55.104 2.07467 54.408C1.78667 54.072 1.71467 54.192 1.57067 54.648C1.33067 55.536 1.33067 56.472 0.922667 57.312C0.802667 57.504 0.706667 57.72 0.586667 57.912C0.514667 57.96 0.322667 57.96 0.202667 57.96C0.154667 57.936 0.0586667 57.816 0.0106667 57.768C0.0106667 57.744 -0.0133333 57.696 0.0106667 57.624C0.298667 56.184 0.274667 54.72 0.778667 53.304C0.922667 52.824 1.09067 52.344 1.76267 52.344C1.93067 52.344 2.07467 52.056 2.26667 51.912C2.67467 51.576 3.08267 51.192 3.49067 50.856C4.23467 50.256 5.09867 50.232 5.98667 50.376C6.20267 50.424 6.41867 50.568 6.53867 50.736C6.85067 51.12 7.04267 51.6 7.04267 52.128Z" fill="black"/>
<path d="M9.72092 50.784C9.57692 51.672 9.21692 52.56 8.73692 53.448C8.68892 53.568 8.42492 53.592 8.28092 53.592C8.20892 53.592 8.08892 53.376 8.11292 53.256C8.28092 52.248 8.47292 51.24 8.68892 50.208C8.71292 49.92 9.00092 49.728 9.26492 49.8C9.52892 49.824 9.64892 49.992 9.67292 50.232C9.72092 50.376 9.72092 50.52 9.72092 50.784Z" fill="black"/>
<path d="M13.4092 50.256C14.2252 50.136 14.8492 50.64 15.2812 51.432C15.8812 52.512 15.9772 53.664 15.6412 54.888C15.4972 55.32 15.2332 55.704 14.7532 55.824C14.6572 55.848 14.5132 55.824 14.4892 55.8C14.4652 55.776 14.4172 55.608 14.4172 55.608C14.8732 54.864 14.8252 54 14.8012 53.208C14.8012 52.488 14.4172 51.888 13.8652 51.456C13.3852 51.12 13.2652 51.12 12.6652 51.576C12.4732 51.744 12.1612 51.648 12.1132 51.432C11.9212 50.808 12.2332 50.328 12.8572 50.256C13.0012 50.256 13.1452 50.256 13.4092 50.256ZM9.16123 59.496C9.52123 58.848 9.76123 57.984 10.0252 57.48C10.3852 56.64 10.6972 55.8 10.9612 54.888C11.1052 54.288 11.3212 53.664 11.5372 53.064C11.5852 52.992 11.7532 52.848 11.8492 52.848C12.0172 52.92 12.2332 53.04 12.2332 53.16C12.3052 53.664 12.3772 54.192 12.2572 54.672C11.7292 56.736 11.0812 58.728 9.97723 60.576C9.13723 61.992 8.22523 63.384 7.12123 64.584C6.80923 64.944 6.44923 65.208 6.08923 65.496C5.58523 65.832 5.15323 65.88 5.10523 65.64C5.08123 65.28 5.41723 65.112 5.65723 64.896C6.08923 64.56 6.35323 64.128 6.64123 63.624C7.21723 62.688 7.86523 61.776 8.41723 60.84C8.70523 60.408 8.94523 59.976 9.16123 59.496Z" fill="black"/>
<path d="M17.694 54.264C17.694 55.464 18.27 55.92 19.182 55.728C19.95 55.56 20.91 55.008 20.79 53.856C20.718 53.136 20.478 52.392 20.142 51.72C19.998 51.432 19.47 51.504 19.206 51.672C18.222 52.272 17.742 53.208 17.694 54.264ZM16.614 54.456C16.518 53.016 18.078 50.832 19.47 50.328C20.382 50.04 21.654 50.376 22.254 51.096C22.374 51.264 22.422 51.456 22.278 51.624C22.086 51.72 21.774 51.456 21.438 51.336C21.366 51.288 21.078 51.24 21.03 51.264C21.126 51.552 21.366 52.056 21.414 52.224C21.702 53.232 21.774 54.12 21.438 55.032C21.366 55.224 21.246 55.416 21.126 55.56C20.406 56.328 19.518 56.856 18.534 56.712C17.286 56.52 16.71 55.896 16.614 54.456Z" fill="black"/>
<path d="M25.173 57.096C26.181 57.312 27.213 57.312 28.173 56.688C28.989 56.208 28.965 56.184 28.965 55.224C28.965 55.008 28.869 54.792 28.749 54.624C28.485 54.024 28.197 53.448 27.693 53.016C27.357 52.728 27.021 52.464 26.685 52.2C26.397 52.416 26.085 52.68 25.797 52.848C25.077 53.616 24.525 54.096 23.901 55.056C23.685 55.344 23.301 55.8 23.445 56.136C23.541 56.256 23.613 56.424 23.733 56.496C24.237 56.76 24.669 57 25.173 57.096ZM24.405 58.056C24.189 58.008 23.901 57.96 23.661 57.816C22.413 57.144 22.125 56.112 22.965 54.768C23.301 54.24 23.709 53.736 24.117 53.28C24.549 52.776 25.053 52.32 25.533 51.84C26.037 51.312 26.037 51.192 25.509 50.784C25.077 50.472 24.645 50.184 24.213 49.872C23.997 49.728 23.781 49.56 23.877 49.248C23.973 48.984 24.381 48.936 24.741 49.104C25.437 49.344 26.037 49.656 26.565 50.136C26.973 50.496 27.093 50.472 27.501 50.088C27.861 49.8 28.245 49.44 28.605 49.152C28.797 49.032 29.061 48.96 29.253 48.96C29.397 48.96 29.565 49.104 29.637 49.248C29.685 49.344 29.613 49.536 29.517 49.608C29.061 49.944 28.485 50.424 28.125 50.76C27.933 51 27.765 51.216 27.957 51.456C28.245 51.768 28.581 52.056 28.869 52.392C29.565 53.304 30.021 54.312 30.069 55.536C30.141 56.376 29.829 56.952 29.061 57.384C27.549 58.248 26.013 58.368 24.405 58.056Z" fill="black"/>
<path d="M30.432 56.04C31.632 55.392 31.944 53.856 32.136 52.8C32.496 50.808 32.856 48.792 33.36 46.824C33.744 45.36 34.368 44.064 35.472 42.816C36.288 41.904 37.2 41.232 38.184 40.896C38.544 40.776 39.288 40.872 39.624 41.064C40.176 41.4 40.368 43.44 39.816 42.888C39.624 42.696 39.456 42.528 39.264 42.336C38.88 41.784 38.16 41.928 37.824 42.12C36.288 42.96 35.304 44.688 34.584 46.488C33.672 48.648 33.48 51.168 33.144 53.496C32.952 54.408 32.592 55.344 31.92 55.92C31.56 56.232 30.888 56.52 30.432 56.04Z" fill="black"/>
<path d="M42.2004 51.72C42.2964 51.768 42.5124 51.84 42.6324 52.008C43.1844 52.776 44.0244 53.352 44.4084 54.264C44.5044 54.48 44.6004 54.696 44.5764 54.912C44.5764 55.032 44.4564 55.296 44.3364 55.32C44.1924 55.392 43.9284 55.272 43.8564 55.152C43.4964 54.48 42.9924 54 42.4164 53.52C42.2724 53.4 42.0804 53.4 41.9844 53.568C41.8404 53.928 41.7444 54.312 41.5764 54.624C41.0484 55.728 40.4964 56.856 39.9444 57.96C38.6004 59.376 37.4484 60.96 35.6004 61.92C34.1604 62.616 32.6724 63.192 31.0644 63.432C30.6324 63.48 30.2484 63.552 29.8884 63.312C29.6004 63.192 29.3124 62.736 29.3844 62.712C29.6004 62.64 29.8404 62.664 30.0324 62.64C30.7524 62.544 31.5204 62.52 32.2164 62.28C33.9684 61.656 35.5044 60.744 36.9204 59.52C38.8164 57.888 39.8724 55.8 40.7844 53.568C40.8084 53.376 40.7844 53.136 40.7364 52.92C40.6404 51.96 41.0964 51.552 42.2004 51.72Z" fill="black"/>
<path d="M48.4734 49.56C48.2574 50.832 47.7294 52.8 47.1054 54C46.2174 55.8 45.2574 56.448 45.2574 56.232C45.1854 55.176 45.8334 54.384 46.1694 53.472C46.6974 52.176 47.0094 50.856 47.0574 49.44C47.1054 48.888 47.2974 48.6 47.6574 48.6C48.1134 48.648 48.5694 49.056 48.4734 49.56Z" fill="black"/>
<path d="M50.7834 50.784C50.6394 51.672 50.2794 52.56 49.7994 53.448C49.7514 53.568 49.4874 53.592 49.3434 53.592C49.2714 53.592 49.1514 53.376 49.1754 53.256C49.3434 52.248 49.5354 51.24 49.7514 50.208C49.7754 49.92 50.0634 49.728 50.3274 49.8C50.5914 49.824 50.7114 49.992 50.7354 50.232C50.7834 50.376 50.7834 50.52 50.7834 50.784Z" fill="black"/>
<path d="M55.0237 45.648C55.5037 45.744 56.0317 45.888 56.4637 46.08C57.4477 46.608 57.8077 47.616 57.4477 48.648C57.1597 49.344 56.7517 49.8 56.1037 50.16C55.7917 50.376 55.7677 50.568 56.1037 50.808C57.1357 51.504 57.3757 52.584 57.5917 53.664C57.7597 54.576 57.2557 55.296 56.5597 55.776C55.4797 56.544 54.2077 57 52.8157 56.88C52.0957 56.808 51.3757 56.832 50.7277 56.376C50.6797 56.352 50.6317 56.184 50.6557 56.16C50.6797 56.088 50.7517 55.992 50.8237 55.968C51.0397 55.992 51.2797 56.016 51.4957 56.04C52.3837 56.184 53.2477 56.088 54.1117 55.92C55.0717 55.752 55.7437 55.2 56.3197 54.432C56.6077 53.952 56.6077 53.448 56.3677 52.968C55.8877 51.984 55.2877 51.144 54.1357 50.88C53.9197 50.832 53.7037 50.784 53.5117 50.664C53.4157 50.544 53.3437 50.328 53.3677 50.16C53.3917 50.016 53.5837 49.872 53.7037 49.8C53.8237 49.704 53.9677 49.776 54.1117 49.8C55.2157 49.968 55.7917 49.272 56.3197 48.456C56.3917 48.36 56.3677 48.12 56.3197 47.928C56.1757 47.304 55.7437 46.8 55.0957 46.68C54.2317 46.512 53.4397 46.632 52.8637 46.848C52.7437 46.92 52.4557 46.944 52.3837 46.872C52.2877 46.776 52.2157 46.536 52.2397 46.392C52.2637 46.032 52.5037 45.792 52.8397 45.696C53.5597 45.48 54.2797 45.456 55.0237 45.648Z" fill="black"/>
<path d="M65.498 51.048C65.282 52.08 65.09 53.112 64.778 54.12C64.658 54.576 64.346 55.008 64.034 55.392C63.602 55.848 63.026 56.04 62.378 55.776C61.634 55.464 61.01 54.672 60.602 53.88C60.506 53.688 60.29 53.736 60.194 53.904C59.882 54.456 59.546 55.128 59.09 55.632C58.922 55.8 58.562 55.896 58.25 55.992C58.106 56.04 57.914 55.752 58.01 55.608C58.034 55.512 58.058 55.44 58.13 55.392C59.042 54.384 59.498 53.208 59.762 51.912C59.786 51.768 59.834 51.576 59.906 51.384C59.978 51.168 60.098 50.952 60.338 50.976C60.602 51.048 60.866 51.216 60.914 51.528C60.962 51.84 60.986 52.176 61.034 52.488C61.202 53.424 61.562 54.024 62.162 54.504C62.594 54.864 63.026 54.792 63.314 54.288C64.106 52.896 64.586 50.616 64.61 50.424C64.658 50.232 64.802 50.016 64.994 49.896C65.09 49.8 65.33 49.824 65.498 49.872C65.594 49.968 65.546 50.88 65.498 51.048Z" fill="black"/>
<path d="M69.2156 49.56C68.9996 50.832 68.4716 52.8 67.8476 54C66.9596 55.8 65.9996 56.448 65.9996 56.232C65.9276 55.176 66.5756 54.384 66.9116 53.472C67.4396 52.176 67.7516 50.856 67.7996 49.44C67.8476 48.888 68.0396 48.6 68.3996 48.6C68.8556 48.648 69.3116 49.056 69.2156 49.56Z" fill="black"/>
<path d="M76.5656 51.672C76.5176 53.256 76.0616 54.528 74.9336 55.512C74.6216 55.776 74.3336 56.064 73.9976 56.208C73.4456 56.448 72.7976 56.472 72.0536 56.256C71.5016 56.064 71.0936 55.656 70.8056 55.128C70.0856 53.76 69.9416 52.368 70.3016 50.88C70.7096 49.032 71.5736 47.448 72.7736 46.08C73.2536 45.504 73.7816 45.024 74.3336 44.52C74.5016 44.352 74.6936 44.256 74.9096 44.232C75.1256 44.16 75.4136 44.16 75.6296 44.28C75.8936 44.448 75.9896 44.808 75.8696 45.12C75.7256 45.408 75.4376 45.648 75.2216 45.864C75.1736 45.888 75.0056 45.816 74.9336 45.744C74.8376 45.648 74.8136 45.504 74.6456 45.624C73.3496 46.8 72.2936 48.168 71.7656 49.848C71.5016 50.712 71.1896 51.528 71.1896 52.464C71.1656 53.16 71.3096 53.76 71.5736 54.36C71.7896 54.816 72.1496 55.128 72.6056 55.272C73.0376 55.416 73.3496 55.392 73.7336 55.128C74.5976 54.456 75.1976 53.664 75.3896 52.584C75.5096 51.984 75.6776 51.312 75.7976 50.712C75.8216 50.592 75.9896 50.448 76.0616 50.496C76.1816 50.496 76.4216 50.568 76.4696 50.688C76.5416 51.072 76.5416 51.456 76.5656 51.672Z" fill="black"/>
<path d="M80.7937 49.56C80.5777 50.832 80.0497 52.8 79.4257 54C78.5377 55.8 77.5777 56.448 77.5777 56.232C77.5057 55.176 78.1537 54.384 78.4897 53.472C79.0177 52.176 79.3297 50.856 79.3777 49.44C79.4257 48.888 79.6177 48.6 79.9777 48.6C80.4337 48.648 80.8897 49.056 80.7937 49.56Z" fill="black"/>
<path d="M84.8557 48.936C84.8317 49.08 84.8557 49.2 84.8077 49.248C84.3277 49.68 84.2317 50.28 84.0637 50.832C83.8957 51.216 83.7517 51.624 83.5837 51.984C82.8397 53.808 82.0237 55.608 81.3037 57.456C81.0637 58.08 80.5837 58.488 80.1277 58.92C80.0557 58.944 79.9357 58.944 79.8397 58.896C79.7677 58.848 79.6717 58.752 79.7197 58.704C79.8157 58.32 79.9117 57.912 80.0557 57.552C80.5357 56.328 80.9917 55.128 81.4717 53.952C81.7117 53.328 81.9517 52.68 82.2397 52.056C82.5517 51.336 82.8637 50.616 83.1757 49.896C83.4397 49.272 83.8237 48.768 84.5917 48.768C84.6877 48.768 84.7597 48.888 84.8557 48.936ZM87.0637 56.304C85.8877 56.304 84.9277 55.8 84.2317 54.912C83.5597 54.072 83.8717 53.4 84.4957 52.608C85.0477 51.912 86.1997 51.552 87.2557 51.6C87.3997 51.6 87.6157 51.6 87.7357 51.672C88.1197 51.936 88.5277 52.224 88.9117 52.536C89.0077 52.632 89.0557 52.92 89.1037 53.112C89.1277 53.208 89.0557 53.352 89.0317 53.448C88.9357 53.472 88.7677 53.472 88.7677 53.472C88.5517 53.352 88.3837 53.208 88.2397 53.088C87.3037 52.368 85.7677 52.608 85.2397 53.664C85.0717 53.952 85.2397 54.384 85.4077 54.576C86.2717 55.488 87.3997 55.368 88.3837 54.84C88.5277 54.792 88.6717 54.696 88.8397 54.672C88.8877 54.672 89.0317 54.816 88.9837 54.912C88.8397 55.704 87.9757 56.304 87.0637 56.304Z" fill="black"/>
<path d="M92.9812 49.56C92.7652 50.832 92.2372 52.8 91.6132 54C90.7252 55.8 89.7652 56.448 89.7652 56.232C89.6932 55.176 90.3412 54.384 90.6772 53.472C91.2052 52.176 91.5172 50.856 91.5652 49.44C91.6132 48.888 91.8052 48.6 92.1652 48.6C92.6212 48.648 93.0772 49.056 92.9812 49.56Z" fill="black"/>
<path d="M104.021 52.44C104.045 52.248 104.045 52.152 104.045 52.056C104.045 51.504 103.853 51.384 103.301 51.384C102.173 51.432 101.453 52.128 100.757 52.872C100.541 53.088 100.613 53.472 100.853 53.664C101.237 53.976 101.645 54.264 102.053 54.432C102.509 54.648 102.941 54.528 103.325 54.192C103.877 53.688 104.069 53.064 104.021 52.44ZM105.293 52.128C105.293 53.496 104.261 55.056 103.013 55.44C101.909 55.776 100.949 55.104 100.325 54.408C100.037 54.072 99.9647 54.192 99.8207 54.648C99.5807 55.536 99.5807 56.472 99.1727 57.312C99.0527 57.504 98.9567 57.72 98.8367 57.912C98.7647 57.96 98.5727 57.96 98.4527 57.96C98.4047 57.936 98.3087 57.816 98.2607 57.768C98.2607 57.744 98.2367 57.696 98.2607 57.624C98.5487 56.184 98.5247 54.72 99.0287 53.304C99.1727 52.824 99.3407 52.344 100.013 52.344C100.181 52.344 100.325 52.056 100.517 51.912C100.925 51.576 101.333 51.192 101.741 50.856C102.485 50.256 103.349 50.232 104.237 50.376C104.453 50.424 104.669 50.568 104.789 50.736C105.101 51.12 105.293 51.6 105.293 52.128Z" fill="black"/>
<path d="M107.971 50.784C107.827 51.672 107.467 52.56 106.987 53.448C106.939 53.568 106.675 53.592 106.531 53.592C106.459 53.592 106.339 53.376 106.363 53.256C106.531 52.248 106.723 51.24 106.939 50.208C106.963 49.92 107.251 49.728 107.515 49.8C107.779 49.824 107.899 49.992 107.923 50.232C107.971 50.376 107.971 50.52 107.971 50.784Z" fill="black"/>
<path d="M113.723 52.632C113.771 53.448 113.339 54.168 112.931 54.792C112.523 55.44 111.899 55.944 111.347 56.472C111.299 56.52 111.059 56.544 110.963 56.472C110.939 56.448 110.867 56.208 110.915 56.136C111.059 55.8 111.227 55.44 111.491 55.2C112.163 54.552 112.283 53.664 112.427 52.8C112.571 52.296 112.211 51.792 111.731 51.6C110.915 51.288 110.171 51.576 109.475 51.888C109.259 51.984 109.163 52.368 108.995 52.584C108.971 52.632 108.851 52.68 108.779 52.632C108.731 52.632 108.635 52.536 108.635 52.464C108.443 51.792 108.611 51.264 109.187 50.904C109.451 50.712 109.715 50.52 110.003 50.352C111.467 49.608 113.627 50.832 113.723 52.488C113.723 52.512 113.723 52.584 113.723 52.632Z" fill="black"/>
<path d="M117.2 51.72C117.296 51.768 117.512 51.84 117.632 52.008C118.184 52.776 119.024 53.352 119.408 54.264C119.504 54.48 119.6 54.696 119.576 54.912C119.576 55.032 119.456 55.296 119.336 55.32C119.192 55.392 118.928 55.272 118.856 55.152C118.496 54.48 117.992 54 117.416 53.52C117.272 53.4 117.08 53.4 116.984 53.568C116.84 53.928 116.744 54.312 116.576 54.624C116.048 55.728 115.496 56.856 114.944 57.96C113.6 59.376 112.448 60.96 110.6 61.92C109.16 62.616 107.672 63.192 106.064 63.432C105.632 63.48 105.248 63.552 104.888 63.312C104.6 63.192 104.312 62.736 104.384 62.712C104.6 62.64 104.84 62.664 105.032 62.64C105.752 62.544 106.52 62.52 107.216 62.28C108.968 61.656 110.504 60.744 111.92 59.52C113.816 57.888 114.872 55.8 115.784 53.568C115.808 53.376 115.784 53.136 115.736 52.92C115.64 51.96 116.096 51.552 117.2 51.72Z" fill="black"/>
<path d="M123.785 48.936C123.761 49.08 123.785 49.2 123.737 49.248C123.257 49.68 123.161 50.28 122.993 50.832C122.825 51.216 122.681 51.624 122.513 51.984C121.769 53.808 120.953 55.608 120.233 57.456C119.993 58.08 119.513 58.488 119.057 58.92C118.985 58.944 118.865 58.944 118.769 58.896C118.697 58.848 118.601 58.752 118.649 58.704C118.745 58.32 118.841 57.912 118.985 57.552C119.465 56.328 119.921 55.128 120.401 53.952C120.641 53.328 120.881 52.68 121.169 52.056C121.481 51.336 121.793 50.616 122.105 49.896C122.369 49.272 122.753 48.768 123.521 48.768C123.617 48.768 123.689 48.888 123.785 48.936ZM125.993 56.304C124.817 56.304 123.857 55.8 123.161 54.912C122.489 54.072 122.801 53.4 123.425 52.608C123.977 51.912 125.129 51.552 126.185 51.6C126.329 51.6 126.545 51.6 126.665 51.672C127.049 51.936 127.457 52.224 127.841 52.536C127.937 52.632 127.985 52.92 128.033 53.112C128.057 53.208 127.985 53.352 127.961 53.448C127.865 53.472 127.697 53.472 127.697 53.472C127.481 53.352 127.313 53.208 127.169 53.088C126.233 52.368 124.697 52.608 124.169 53.664C124.001 53.952 124.169 54.384 124.337 54.576C125.201 55.488 126.329 55.368 127.313 54.84C127.457 54.792 127.601 54.696 127.769 54.672C127.817 54.672 127.961 54.816 127.913 54.912C127.769 55.704 126.905 56.304 125.993 56.304Z" fill="black"/>
<path d="M140.52 51.744C140.544 53.064 140.184 54.24 139.56 55.296C139.44 55.536 139.104 55.656 138.864 55.776C138.816 55.824 138.648 55.776 138.6 55.752C138.528 55.704 138.528 55.584 138.504 55.512C138.72 54.864 138.96 54.192 139.248 53.568C139.464 52.92 139.392 52.272 139.344 51.6C139.248 50.928 138.84 50.52 138.264 50.16C137.688 49.848 136.992 50.136 136.872 50.784C136.824 51.12 136.848 51.48 136.872 51.864C136.848 52.104 136.824 52.368 136.512 52.416C136.08 52.464 135.984 52.776 135.888 53.136C135.504 54.168 135.096 55.152 134.712 56.208C134.568 56.568 134.352 56.88 133.968 57C133.848 57.024 133.704 56.976 133.68 56.952C133.584 56.88 133.56 56.784 133.56 56.688C133.56 56.64 133.56 56.544 133.56 56.544C134.424 54.672 134.712 52.656 135.432 50.76C135.552 50.328 135.696 50.064 136.08 49.848C136.32 49.752 136.512 49.584 136.608 49.368C136.896 49.08 137.28 48.96 137.688 48.96C139.224 48.984 140.424 49.608 140.52 51.744Z" fill="black"/>
<path d="M144.403 49.56C144.187 50.832 143.659 52.8 143.035 54C142.147 55.8 141.187 56.448 141.187 56.232C141.115 55.176 141.763 54.384 142.099 53.472C142.627 52.176 142.939 50.856 142.987 49.44C143.035 48.888 143.227 48.6 143.587 48.6C144.043 48.648 144.499 49.056 144.403 49.56Z" fill="black"/>
<path d="M147.505 51.72C147.601 51.768 147.817 51.84 147.937 52.008C148.489 52.776 149.329 53.352 149.713 54.264C149.809 54.48 149.905 54.696 149.881 54.912C149.881 55.032 149.761 55.296 149.641 55.32C149.497 55.392 149.233 55.272 149.161 55.152C148.801 54.48 148.297 54 147.721 53.52C147.577 53.4 147.385 53.4 147.289 53.568C147.145 53.928 147.049 54.312 146.881 54.624C146.353 55.728 145.801 56.856 145.249 57.96C143.905 59.376 142.753 60.96 140.905 61.92C139.465 62.616 137.977 63.192 136.369 63.432C135.937 63.48 135.553 63.552 135.193 63.312C134.905 63.192 134.617 62.736 134.689 62.712C134.905 62.64 135.145 62.664 135.337 62.64C136.057 62.544 136.825 62.52 137.521 62.28C139.273 61.656 140.809 60.744 142.225 59.52C144.121 57.888 145.177 55.8 146.089 53.568C146.113 53.376 146.089 53.136 146.041 52.92C145.945 51.96 146.401 51.552 147.505 51.72Z" fill="black"/>
<path d="M152.338 50.784C152.194 51.672 151.834 52.56 151.354 53.448C151.306 53.568 151.042 53.592 150.898 53.592C150.826 53.592 150.706 53.376 150.73 53.256C150.898 52.248 151.09 51.24 151.306 50.208C151.33 49.92 151.618 49.728 151.882 49.8C152.146 49.824 152.266 49.992 152.29 50.232C152.338 50.376 152.338 50.52 152.338 50.784Z" fill="black"/>
<path d="M153.866 55.176C153.914 55.944 153.962 56.472 154.562 57.096C155.138 57.696 155.81 57.984 156.53 57.672C158.186 56.952 159.122 55.632 159.218 53.856C159.314 52.2 158.594 50.688 157.13 49.752C156.506 49.344 155.69 49.056 154.994 49.776C154.946 49.848 154.682 49.848 154.658 49.8C154.634 49.68 154.586 49.536 154.634 49.44C154.898 48.768 155.354 48.36 156.122 48.408C157.346 48.408 158.114 48.744 159.002 49.896C159.866 51.048 160.274 52.272 160.37 53.184C160.61 55.8 158.402 57.792 158.042 58.08C157.37 58.632 156.41 58.848 155.642 58.752C154.466 58.608 153.698 57.72 153.578 57.552C153.17 56.88 152.93 56.016 152.93 55.296C152.93 54.336 153.122 53.472 153.626 52.704C153.89 52.32 154.274 51.936 154.658 51.72C155.522 51.24 156.53 51.48 156.866 52.464C157.25 53.592 157.394 54.888 156.002 55.92C155.714 56.112 155.522 56.496 155.09 56.424C154.994 56.424 154.874 56.328 154.85 56.304C154.826 56.28 154.802 56.112 154.85 56.088C155.09 55.8 155.378 55.56 155.594 55.272C156.146 54.552 156.194 53.736 155.834 52.92C155.69 52.584 155.354 52.44 155.042 52.608C154.154 53.04 153.818 54.288 153.866 55.176Z" fill="black"/>
</svg>
