<?xml version="1.0" encoding="UTF-8" standalone="no"?><!DOCTYPE svg PUBLIC "-//W3C//DTD SVG 1.1//EN" "http://www.w3.org/Graphics/SVG/1.1/DTD/svg11.dtd"><svg width="100%" height="100%" viewBox="0 0 234 121" version="1.1" xmlns="http://www.w3.org/2000/svg" xmlns:xlink="http://www.w3.org/1999/xlink" xml:space="preserve" xmlns:serif="http://www.serif.com/" style="fill-rule:evenodd;clip-rule:evenodd;stroke-linejoin:round;stroke-miterlimit:2;"><rect id="Artboard1" x="0" y="0" width="233.333" height="120.833" style="fill:none;"/><clipPath id="_clip1"><rect x="0" y="0" width="233.333" height="120.833"/></clipPath><g clip-path="url(#_clip1)"><path d="M132.395,116.667c1.733,0 2.6,-0.867 2.6,-2.6l0,-109.8c0,-1.733 -0.867,-2.6 -2.6,-2.6l-93,0c-13.6,0 -22.733,2.8 -27.4,8.4c-4.667,5.467 -7,12.4 -7,20.8l0,11.8c0,6.267 0.8,11.333 2.4,15.2c1.467,3.867 4.133,7 8,9.4c3.867,2.267 9.333,3.8 16.4,4.6c1.733,0.133 2.067,0.867 1,2.2l-32.2,40.6l-0.6,1.2c0,0.533 0.533,0.8 1.6,0.8l12.8,0c1.867,0 3.267,-0.667 4.2,-2l32.2,-40.2c0.933,-1.333 2.333,-2 4.2,-2l63.4,0c1.733,0 2.6,0.867 2.6,2.6l0,39c0,1.733 0.867,2.6 2.6,2.6l8.8,0Zm-85,-57.4c-10.267,0 -17.533,-1 -21.8,-3c-4.4,-2.133 -6.6,-5.933 -6.6,-11.4l0,-12c0,-6.133 1.533,-10.667 4.6,-13.6c2.933,-2.933 8.867,-4.4 17.8,-4.4l77,0c1.733,0 2.6,0.867 2.6,2.6l0,39.2c0,1.733 -0.867,2.6 -2.6,2.6l-71,0Z" style="fill-rule:nonzero;"/><path d="M101.329,116.667c-1.733,0 -2.6,-0.867 -2.6,-2.6l0,-109.8c0,-1.733 0.867,-2.6 2.6,-2.6l8.8,0c1.733,0 2.6,0.867 2.6,2.6l0,44.2c0,1.733 0.867,2.6 2.6,2.6l17,0c1.733,0 3.333,-0.467 4.8,-1.4l69.2,-46.6c1.467,-0.933 3.067,-1.4 4.8,-1.4l18,0c1.733,0 1.867,0.467 0.4,1.4l-78.8,53.2c-0.8,0.4 -1.2,0.867 -1.2,1.4c0,0.267 0.4,0.733 1.2,1.4l82.6,56.2c1.467,0.933 1.333,1.4 -0.4,1.4l-18.4,0c-1.733,0 -3.333,-0.467 -4.8,-1.4l-73,-49.6c-1.467,-0.933 -3.067,-1.4 -4.8,-1.4l-16.6,0c-1.733,0 -2.6,0.867 -2.6,2.6l0,47.2c0,1.733 -0.867,2.6 -2.6,2.6l-8.8,0Z" style="fill-rule:nonzero;"/></g></svg>