<svg width="34" height="40" viewBox="0 0 34 40" fill="none" xmlns="http://www.w3.org/2000/svg">
<path d="M3.52891 7.15581C0.449183 9.06179 0 11.2044 0 13.0479V27.5104C-4.21566e-05 29.2244 0.953162 30.8115 2.52065 31.7955C6.2176 34.1167 13.8131 38.8661 14.6198 39.2946C15.5731 40.1293 18.0937 40.3354 19.661 39.2946C22.6307 37.451 28.1761 34.2372 30.2478 32.6302C32.2091 31.1088 33.7215 30.4876 33.7767 28.5816C33.9469 24.0599 34.18 14.5477 33.7767 11.9766C33.3734 9.40552 31.256 7.69145 30.2478 7.15581C27.0549 5.19177 20.4677 1.15657 19.661 0.728053C18.5978 0.163211 16.5813 -0.579839 14.6198 0.728053C11.4269 2.51354 4.73882 6.29877 3.52891 7.15581Z" fill="#E0CCFF"/>
</svg>
