<svg width="16" height="19" viewBox="0 0 16 19" fill="none" xmlns="http://www.w3.org/2000/svg">
<path d="M1.63018 3.33662C0.2075 4.22534 0 5.22438 0 6.08399V12.8276C-1.94742e-05 13.6268 0.440313 14.3668 1.16441 14.8256C2.87222 15.9079 6.38098 18.1225 6.7536 18.3223C7.19398 18.7115 8.35839 18.8076 9.08242 18.3223C10.4542 17.4627 13.016 15.9641 13.973 15.2148C14.879 14.5054 15.5777 14.2158 15.6031 13.3271C15.6818 11.2187 15.7894 6.78332 15.6031 5.58447C15.4168 4.38561 14.4387 3.58638 13.973 3.33662C12.498 2.42082 9.45503 0.539286 9.08242 0.339477C8.59127 0.076102 7.65974 -0.270368 6.7536 0.339477C5.27867 1.17202 2.1891 2.937 1.63018 3.33662Z" fill="#AB71FE"/>
</svg>
